<svg width="30" height="15" viewBox="0 0 30 15" fill="none" xmlns="http://www.w3.org/2000/svg">
<path d="M27.3029 1.70545C27.0679 1.17543 26.4047 0.744629 25.8251 0.744629H1.68181C1.10218 0.744629 0.626995 1.2146 0.621773 1.79422C0.606107 3.74459 0.577386 7.9717 0.595662 10.6296C0.595662 10.6296 0.0134242 10.6348 0.000369512 11.2954C-0.017907 12.1701 0.64788 12.2066 0.64788 12.2066C0.64788 12.2066 2.49903 12.3581 3.89066 12.4233C3.88805 12.379 3.88805 12.3372 3.88805 12.2928C3.88805 10.8751 5.03686 9.72624 6.4546 9.72624C7.87234 9.72624 9.02114 10.8751 9.02114 12.2928C9.02114 12.3659 9.01854 12.4364 9.01071 12.5043C11.8253 12.5617 18.2221 12.4991 21.4074 12.4625C21.4022 12.3998 21.3996 12.3372 21.3996 12.2745C21.3996 10.8672 22.5406 9.72624 23.9479 9.72624C25.3552 9.72624 26.4961 10.8672 26.4961 12.2745C26.4961 12.3424 26.4935 12.4077 26.4883 12.4729C27.2925 12.439 28.3029 12.3685 28.9243 12.3215C29.5039 12.2771 29.9687 11.8829 29.9635 11.3006L30 8.27979L27.3029 1.70545ZM6.43632 6.78894L2.19878 6.53046V2.37385L6.43632 2.38952V6.78894ZM11.4806 7.09703L7.4102 6.84899V2.39213L11.4806 2.40779V7.09703ZM16.6294 7.40773L12.4519 7.15447V2.41041L16.6294 2.42607V7.40773ZM21.7782 7.72105L17.6007 7.46778V2.43129L21.7782 2.44696V7.72105ZM27.6058 8.07613L22.7521 7.7811V2.44957L25.4021 2.46001C25.8095 2.46001 26.2638 2.74722 26.4178 3.09708L28.2533 7.23541C28.4726 7.7341 28.1828 8.11008 27.6058 8.07613Z" fill="#BEBE6F"/>
<path d="M23.9478 10.2535C22.8303 10.2535 21.9243 11.1595 21.9243 12.277C21.9243 13.3945 22.8303 14.3005 23.9478 14.3005C25.0653 14.3005 25.9713 13.3945 25.9713 12.277C25.9713 11.1595 25.0653 10.2535 23.9478 10.2535ZM23.9478 12.8984C23.6031 12.8984 23.3238 12.619 23.3238 12.2744C23.3238 11.9298 23.6031 11.6504 23.9478 11.6504C24.2924 11.6504 24.5718 11.9298 24.5718 12.2744C24.5718 12.619 24.2924 12.8984 23.9478 12.8984Z" fill="#BEBE6F"/>
<path d="M6.45466 10.2877C5.34762 10.2877 4.44946 11.1859 4.44946 12.2929C4.44946 13.4 5.34762 14.2981 6.45466 14.2981C7.56169 14.2981 8.45985 13.4 8.45985 12.2929C8.45985 11.1859 7.56169 10.2877 6.45466 10.2877ZM6.45466 12.9169C6.11002 12.9169 5.83065 12.6376 5.83065 12.2929C5.83065 11.9483 6.11002 11.6689 6.45466 11.6689C6.7993 11.6689 7.07867 11.9483 7.07867 12.2929C7.07606 12.6376 6.7993 12.9169 6.45466 12.9169Z" fill="#BEBE6F"/>
</svg>
