<svg width="30" height="11" viewBox="0 0 30 11" fill="none" xmlns="http://www.w3.org/2000/svg">
<path d="M29.5903 8.73914C29.5597 8.22192 29.5736 7.40437 29.493 6.7342C29.4708 6.55345 29.4263 6.40051 29.3679 6.25869C28.8034 6.39773 28.3835 6.42275 27.7939 6.38104C27.2155 6.34211 27.0209 5.98895 26.8207 5.69419C26.2534 4.8544 28.097 5.03237 28.6198 5.0991C28.5475 4.97953 28.503 4.90167 28.503 4.90167C27.3768 4.13695 25.8724 3.87834 24.3096 3.5808C23.4893 3.42508 22.5633 3.46957 21.768 3.23876C21.223 3.08026 20.6501 2.45459 20.1718 2.15704C18.3143 0.991897 16.8627 0.129856 14.2015 0.0186251C11.9352 -0.0759213 8.83183 0.157665 5.48377 1.46185C3.9182 2.07362 2.4277 2.82165 0.656344 3.05523C0.597948 3.17759 0.542332 3.30829 0.49784 3.44454C1.24031 3.66422 2.22748 3.96733 2.17187 4.01738C2.08566 4.09246 1.9216 5.12691 1.60737 5.14638C1.1541 5.1714 0.653562 5.12135 0.264253 5.06017C0.267034 5.17975 0.272595 5.3021 0.280937 5.43002C-0.144521 6.19195 -0.0694406 7.64352 0.389388 8.28866C0.990035 9.13957 2.28032 8.99219 3.48995 9.04781C3.47605 8.93101 3.46771 8.80866 3.46493 8.6863C3.45102 6.99003 4.8136 5.60242 6.50988 5.58852C8.20615 5.57462 9.59376 6.9372 9.60767 8.63347C9.61045 8.88096 9.58263 9.12289 9.52702 9.35369C10.3001 9.28974 11.3178 9.4399 12.1382 9.43155C14.3572 9.41209 16.2343 9.39541 18.4867 9.37594C19.0734 9.37038 19.7492 9.30642 20.347 9.29252C20.3053 9.09786 20.2831 8.89764 20.2831 8.69187C20.2692 6.99559 21.6317 5.60799 23.328 5.59408C25.0243 5.58018 26.4119 6.94554 26.4258 8.64181C26.4286 8.86705 26.4063 9.08674 26.3591 9.30086C26.4063 9.27305 28.631 9.39262 29.5903 8.73914ZM6.33469 3.23599C5.50046 1.69265 9.9636 0.60537 12.8278 0.641521C12.9947 1.67319 13.142 3.40561 13.142 3.40561C13.142 3.40561 8.92637 3.33331 6.33469 3.23599ZM14.0958 3.39727L13.7037 0.708256C17.8805 0.519164 20.8698 3.67256 20.8698 3.67256L14.0958 3.39727Z" fill="#BEBE6F"/>
<path d="M23.3335 6.34482C22.0488 6.35594 21.0144 7.40707 21.0255 8.69179C21.0366 9.97651 22.0877 11.011 23.3725 10.9998C24.6572 10.9887 25.6916 9.93758 25.6805 8.65286C25.6694 7.36536 24.621 6.33369 23.3335 6.34482ZM23.3613 9.59554C22.8524 9.60111 22.4353 9.18955 22.4298 8.67789C22.4242 8.169 22.8358 7.74911 23.3446 7.74633C23.8563 7.74077 24.2734 8.15232 24.2762 8.66398C24.2818 9.17286 23.873 9.58998 23.3613 9.59554Z" fill="#BEBE6F"/>
<path d="M6.51272 6.33383C5.22801 6.34495 4.19356 7.39609 4.20468 8.6808C4.2158 9.96552 5.26694 11 6.55165 10.9888C7.83637 10.9777 8.87082 9.92659 8.8597 8.64187C8.85136 7.35715 7.80022 6.32271 6.51272 6.33383ZM6.54053 9.58734C6.03165 9.5929 5.61453 9.18134 5.60897 8.67246C5.60619 8.1608 6.01497 7.74368 6.52385 7.7409C7.03551 7.73534 7.44985 8.1469 7.45541 8.65856C7.46097 9.16466 7.05219 9.58177 6.54053 9.58734Z" fill="#BEBE6F"/>
</svg>
