<svg width="15" height="20" viewBox="0 0 15 20" fill="none" xmlns="http://www.w3.org/2000/svg">
<path d="M13.0209 15.65C13.3948 15.5528 13.7438 15.4431 14.0603 15.321C14.7208 15.0692 14.6336 14.4136 14.6336 13.9349V9.67219C14.6336 9.40047 14.6411 8.41082 14.6411 7.91724L14.1027 2.22361C14.1027 2.22361 14.0229 0 7.47009 0C0.997009 0 0.735294 2.09897 0.735294 2.09897L0.186939 7.91474C0.186939 8.39586 0.201894 9.3905 0.201894 9.6697V13.9324C0.201894 14.4136 0.112163 15.0717 0.775174 15.3185C1.1341 15.4556 1.53539 15.5752 1.96411 15.6799L0 20H1.81456L2.19093 18.7561H12.8091L13.1854 20H15L13.0209 15.65ZM4.68594 1.29378C4.68594 1.0445 4.88784 0.840085 5.13958 0.840085H9.69093C9.94018 0.840085 10.1446 1.042 10.1446 1.29378V1.76991C10.1446 2.02169 9.94267 2.22361 9.69093 2.22361H5.13958C4.89033 2.22361 4.68594 2.02169 4.68594 1.76991V1.29378ZM1.23878 7.57572L1.54786 3.75919C1.54786 3.41518 1.62512 3.12103 2.23829 3.12103H12.4202C13.0359 3.12103 13.2677 3.43263 13.2677 3.77664L13.5917 7.57572C13.5917 7.91973 13.0932 8.20142 12.4801 8.20142H9.63609H9.62114H5.37637H5.36391H2.35045C1.73729 8.20142 1.23878 7.91973 1.23878 7.57572ZM1.66251 12.2049C1.66251 11.482 2.25075 10.8937 2.97358 10.8937C3.35743 10.8937 3.7014 11.0607 3.94317 11.3249C4.09272 11.4895 4.20239 11.6939 4.25474 11.9207C4.27468 12.013 4.28714 12.1077 4.28714 12.2074C4.28714 12.5788 4.1326 12.9129 3.88335 13.1522C3.64656 13.379 3.32752 13.5186 2.97607 13.5186C2.9661 13.5186 2.95862 13.5161 2.94865 13.5161C2.23579 13.5012 1.66251 12.9204 1.66251 12.2049ZM2.60219 17.385L3.04835 15.9068C5.77268 16.3829 9.27218 16.3779 11.9417 15.8843L12.3928 17.3825H2.60219V17.385ZM12.0364 13.4862C11.9442 13.5062 11.8495 13.5186 11.7522 13.5186C11.5479 13.5186 11.3584 13.4713 11.1864 13.389C10.7453 13.1771 10.4412 12.7284 10.4412 12.2074C10.4412 11.9631 10.511 11.7338 10.6281 11.5368C10.7178 11.3873 10.835 11.2576 10.9771 11.1529C11.1939 10.9909 11.4631 10.8962 11.7547 10.8962C12.4776 10.8962 13.0658 11.4845 13.0658 12.2074C13.0658 12.8331 12.6246 13.3566 12.0364 13.4862Z" fill="#BEBE6F"/>
</svg>
