<svg width="10" height="19" viewBox="0 0 10 19" fill="none" xmlns="http://www.w3.org/2000/svg">
<path d="M9.51697 8.0799L7.24961 7.04519L5.98283 4.88343L5.99471 4.81003C6.07077 4.32938 5.9044 3.86766 5.5883 3.54565C6.23713 3.35149 6.74812 2.80454 6.86221 2.09421C7.01907 1.10449 6.33933 0.178699 5.34825 0.0224272C4.35479 -0.133845 3.42313 0.543334 3.26865 1.53069C3.16407 2.19366 3.43739 2.83059 3.92699 3.22363C3.4778 3.42016 3.13555 3.83215 3.05474 4.35069L3.05237 4.36963L0.480787 6.05074L0.0102021 9.0199C-0.0539686 9.42479 0.190831 9.80837 0.568725 9.93149C0.609128 9.9457 0.654286 9.95517 0.697066 9.96227C1.14864 10.0333 1.57169 9.7255 1.64299 9.27562L1.99712 7.02625L2.70062 6.56691L2.12546 10.2133C2.06604 10.5826 2.1516 10.9425 2.33698 11.2338L0.117153 17.532C-0.0824889 18.0979 0.214598 18.7159 0.782627 18.9148C0.901461 18.9574 1.02505 18.9763 1.14388 18.9763C1.59308 18.9763 2.01375 18.6969 2.17061 18.2518L3.99829 13.0735L5.2722 14.6149L5.99471 18.1334C6.09929 18.6472 6.55324 19 7.05947 19C7.13077 19 7.20445 18.9929 7.27813 18.9787C7.86755 18.8579 8.24782 18.2849 8.1266 17.6977L7.29476 13.6512L5.01552 10.8904C5.03691 10.8194 5.05592 10.7484 5.0678 10.6726L5.57404 7.45482L6.08265 8.32378L8.82535 9.57633C8.84437 9.5858 8.86576 9.5929 8.88715 9.60237C9.28881 9.74917 9.74038 9.56449 9.92338 9.17144C10.1159 8.75945 9.93289 8.26933 9.51697 8.0799Z" fill="#BEBE6F"/>
</svg>
